<?xml version="1.0" encoding="UTF-8" standalone="no"?>
<svg
   width="20"
   height="20"
   viewBox="0 0 20 20"
   version="1.1"
   id="svg2705"
   sodipodi:docname="account.svg"
   inkscape:version="1.2.1 (9c6d41e410, 2022-07-14, custom)"
   xmlns:inkscape="http://www.inkscape.org/namespaces/inkscape"
   xmlns:sodipodi="http://sodipodi.sourceforge.net/DTD/sodipodi-0.dtd"
   xmlns="http://www.w3.org/2000/svg"
   xmlns:svg="http://www.w3.org/2000/svg">
  <defs
     id="defs2709" />
  <sodipodi:namedview
     id="namedview2707"
     pagecolor="#505050"
     bordercolor="#ffffff"
     borderopacity="1"
     inkscape:showpageshadow="0"
     inkscape:pageopacity="0"
     inkscape:pagecheckerboard="1"
     inkscape:deskcolor="#505050"
     showgrid="false"
     inkscape:zoom="34.458333"
     inkscape:cx="10.853688"
     inkscape:cy="6.2974607"
     inkscape:window-width="1920"
     inkscape:window-height="980"
     inkscape:window-x="0"
     inkscape:window-y="27"
     inkscape:window-maximized="1"
     inkscape:current-layer="svg2705" />
  <g
     id="g2703">
    <path
       d="M 10,0 C 15.52,0 20,4.48 20,10 20,15.52 15.52,20 10,20 4.48,20 0,15.52 0,10 0,4.48 4.48,0 10,0 Z M 4.023,13.416 C 5.491,15.606 7.695,17 10.16,17 c 2.464,0 4.669,-1.393 6.136,-3.584 A 8.968,8.968 0 0 0 10.16,11 8.968,8.968 0 0 0 4.023,13.416 Z M 10,9 a 3,3 0 1 0 0,-6 3,3 0 0 0 0,6 z"
       id="path2701" />
  </g>
</svg>
