<?xml version="1.0" encoding="UTF-8" standalone="no"?>
<!-- Generator: Adobe Illustrator 18.0.0, SVG Export Plug-In . SVG Version: 6.00 Build 0)  -->

<svg
   version="1.1"
   id="Capa_1"
   x="0px"
   y="0px"
   viewBox="0 0 19.999999 19.999999"
   xml:space="preserve"
   sodipodi:docname="settings.svg"
   width="20"
   height="20"
   inkscape:version="1.2.1 (9c6d41e410, 2022-07-14, custom)"
   xmlns:inkscape="http://www.inkscape.org/namespaces/inkscape"
   xmlns:sodipodi="http://sodipodi.sourceforge.net/DTD/sodipodi-0.dtd"
   xmlns="http://www.w3.org/2000/svg"
   xmlns:svg="http://www.w3.org/2000/svg"><defs
   id="defs41" /><sodipodi:namedview
   id="namedview39"
   pagecolor="#505050"
   bordercolor="#ffffff"
   borderopacity="1"
   inkscape:showpageshadow="0"
   inkscape:pageopacity="0"
   inkscape:pagecheckerboard="1"
   inkscape:deskcolor="#505050"
   showgrid="false"
   inkscape:zoom="3.1517487"
   inkscape:cx="110.73218"
   inkscape:cy="26.017302"
   inkscape:window-width="1920"
   inkscape:window-height="980"
   inkscape:window-x="0"
   inkscape:window-y="27"
   inkscape:window-maximized="1"
   inkscape:current-layer="Capa_1" />
<g
   id="g6"
   transform="translate(-0.001)">
	<path
   d="M 18.723222,7.8804855 H 17.967866 C 17.77838,7.1662189 17.495522,6.4900627 17.132859,5.865813 l 0.534695,-0.5346901 c 0.498946,-0.4989424 0.498946,-1.3078755 0,-1.8068179 L 16.476897,2.3336573 c -0.498946,-0.4989425 -1.307886,-0.4989425 -1.806832,0 l -0.534694,0.53469 C 13.511117,2.505688 12.834955,2.2229082 12.120683,2.0333467 V 1.277692 C 12.120683,0.57203834 11.54864,0 10.842981,0 H 9.1591711 C 8.4535121,0 7.8814694,0.57203834 7.8814694,1.277692 V 2.0333467 C 7.1672735,2.222832 6.4910359,2.505688 5.8668577,2.8682711 L 5.3320873,2.3335811 C 4.8331411,1.8346386 4.0242018,1.8346386 3.5252556,2.3336573 L 2.3346751,3.524305 c -0.4989463,0.4989424 -0.4989463,1.3078755 0,1.8068179 L 2.869293,5.8657368 C 2.5066309,6.4899865 2.2237727,7.1662189 2.0342859,7.8804855 H 1.2786255 C 0.5730427,7.8804855 0.001,8.4525239 0.001,9.1581776 v 1.6837214 c 0,0.705653 0.5720427,1.277692 1.2776255,1.277692 h 0.7556604 c 0.189563,0.714266 0.4724212,1.390499 0.8350833,2.014748 L 2.3346751,14.66903 c -0.4989463,0.498942 -0.4989463,1.307875 0,1.806817 l 1.1906567,1.190648 c 0.4989463,0.498943 1.3078855,0.498943 1.8068318,0 l 0.5347703,-0.534766 c 0.6241783,0.362659 1.3004158,0.645515 2.0146117,0.835001 v 0.755578 C 7.8815456,19.427962 8.4535883,20 9.1592474,20 h 1.6838106 c 0.705659,0 1.277701,-0.572038 1.277701,-1.277692 V 17.96673 c 0.714272,-0.189562 1.390434,-0.472418 2.014688,-0.835077 l 0.534771,0.534842 c 0.498946,0.498943 1.307885,0.498943 1.806831,0 l 1.190657,-1.190648 c 0.239717,-0.239638 0.374248,-0.564568 0.374248,-0.903447 0,-0.338878 -0.134607,-0.663808 -0.374248,-0.903447 l -0.53477,-0.534766 c 0.362662,-0.624173 0.645444,-1.300482 0.835007,-2.014673 h 0.755355 c 0.705659,0 1.277702,-0.572038 1.277702,-1.277692 V 9.1581013 C 20.000924,8.4525239 19.428881,7.8804855 18.723222,7.8804855 Z m -8.722184,6.6925055 c -2.5216373,0 -4.5731402,-2.051487 -4.5731402,-4.5730291 0,-2.5216182 2.0515029,-4.5731054 4.5731402,-4.5731054 2.521638,0 4.57314,2.0514872 4.57314,4.5731054 0,2.5215421 -2.051502,4.5730291 -4.57314,4.5730291 z"
   id="path2"
   style="stroke-width:0.0762211" />
	<path
   d="m 10.001038,7.7134854 c -1.2607805,0 -2.2864938,1.0257055 -2.2864938,2.2864765 0,1.2606951 1.0257133,2.2864001 2.2864938,2.2864001 1.260781,0 2.286494,-1.025705 2.286494,-2.2864001 0,-1.260771 -1.025713,-2.2864765 -2.286494,-2.2864765 z"
   id="path4"
   style="fill:#000000;fill-opacity:1;stroke-width:0.0762211" />
</g>















</svg>
